<svg width="363" height="347" viewBox="0 0 363 347" fill="none" xmlns="http://www.w3.org/2000/svg">
<g clip-path="url(#clip0_861_154)">
<path fill-rule="evenodd" clip-rule="evenodd" d="M179.93 51.0601L16.1902 328.16C15.4102 329.49 16.3602 331.16 17.9002 331.16H345.39C346.93 331.16 347.89 329.48 347.1 328.16L183.36 51.0601C182.59 49.7601 180.7 49.7601 179.93 51.0601Z" stroke="#333333" stroke-width="30" stroke-miterlimit="10"/>
<path fill-rule="evenodd" clip-rule="evenodd" d="M179.77 195.24L101.22 328.17C100.44 329.5 101.39 331.17 102.93 331.17H260.02C261.56 331.17 262.52 329.49 261.73 328.17L183.18 195.24C182.41 193.94 180.52 193.94 179.75 195.24H179.77Z" stroke="#333333" stroke-width="30" stroke-miterlimit="10"/>
<path fill-rule="evenodd" clip-rule="evenodd" d="M183.36 55.42L347.1 -221.69C347.88 -223.02 346.93 -224.69 345.39 -224.69H17.9C16.36 -224.69 15.4 -223.01 16.19 -221.69L179.93 55.42C180.7 56.72 182.59 56.72 183.36 55.42Z" stroke="white" stroke-width="10" stroke-miterlimit="10"/>
<path fill-rule="evenodd" clip-rule="evenodd" d="M183.36 55.42L347.1 -221.69C347.88 -223.02 346.93 -224.69 345.39 -224.69H17.9C16.36 -224.69 15.4 -223.01 16.19 -221.69L179.93 55.42C180.7 56.72 182.59 56.72 183.36 55.42Z" stroke="#333333" stroke-width="30" stroke-miterlimit="10"/>
<path d="M241.75 133.61H121.54C119.734 133.61 118.27 135.074 118.27 136.88V160.34C118.27 162.146 119.734 163.61 121.54 163.61H241.75C243.556 163.61 245.02 162.146 245.02 160.34V136.88C245.02 135.074 243.556 133.61 241.75 133.61Z" fill="#333333"/>
</g>
<defs>
<clipPath id="clip0_861_154">
<rect width="362.96" height="346.17" fill="white"/>
</clipPath>
</defs>
</svg>
