<svg width="363" height="347" fill="none" xmlns="http://www.w3.org/2000/svg"><g clip-path="url(#clip0_861_154)"><path clip-rule="evenodd" d="M179.93 51.06L16.19 328.16c-.78 1.33.17 3 1.71 3h327.49c1.54 0 2.5-1.68 1.71-3L183.36 51.06c-.77-1.3-2.66-1.3-3.43 0z" stroke="#333" stroke-width="30" stroke-miterlimit="10"/><path clip-rule="evenodd" d="M179.77 195.24l-78.55 132.93c-.78 1.33.17 3 1.71 3h157.09c1.54 0 2.5-1.68 1.71-3l-78.55-132.93c-.77-1.3-2.66-1.3-3.43 0h.02z" stroke="#333" stroke-width="30" stroke-miterlimit="10"/><path clip-rule="evenodd" d="M183.36 55.42L347.1-221.69c.78-1.33-.17-3-1.71-3H17.9c-1.54 0-2.5 1.68-1.71 3L179.93 55.42c.77 1.3 2.66 1.3 3.43 0z" stroke="#fff" stroke-width="10" stroke-miterlimit="10"/><path clip-rule="evenodd" d="M183.36 55.42L347.1-221.69c.78-1.33-.17-3-1.71-3H17.9c-1.54 0-2.5 1.68-1.71 3L179.93 55.42c.77 1.3 2.66 1.3 3.43 0z" stroke="#333" stroke-width="30" stroke-miterlimit="10"/><path d="M241.75 133.61H121.54a3.27 3.27 0 00-3.27 3.27v23.46a3.27 3.27 0 003.27 3.27h120.21a3.27 3.27 0 003.27-3.27v-23.46a3.27 3.27 0 00-3.27-3.27z" fill="#333"/></g><defs><clipPath id="clip0_861_154"><path fill="#fff" d="M0 0h362.96v346.17H0z"/></clipPath></defs></svg>